<svg width="48" height="49" viewBox="0 0 48 49" fill="none" xmlns="http://www.w3.org/2000/svg">
<path d="M32 42.5V38.5C32 36.3783 31.1571 34.3434 29.6569 32.8431C28.1566 31.3429 26.1217 30.5 24 30.5H10C7.87827 30.5 5.84344 31.3429 4.34315 32.8431C2.84285 34.3434 2 36.3783 2 38.5V42.5M40 16.5V28.5M46 22.5H34M25 14.5C25 18.9183 21.4183 22.5 17 22.5C12.5817 22.5 9 18.9183 9 14.5C9 10.0817 12.5817 6.5 17 6.5C21.4183 6.5 25 10.0817 25 14.5Z" stroke="#1E1E1E" stroke-width="4" stroke-linecap="round" stroke-linejoin="round"/>
</svg>
